# xmcd
#
# Track frame offsets:
#	150
#	11204
#	25021
#	46784
#	58626
#
# Disc length: 969 seconds
#
# Revision: 0
# Processed by: cddbd v1.5.2PL0 Copyright (c) Steve Scherf et al.
# Submitted via: FairStars CD Ripper 1.90
#
DISCID=3403c705
DTITLE=Angela Perley and the Howlin Moons - Nowhere Is Now Here
DYEAR=2012
DGENRE=Country
TTITLE0=Brooklyn Girls
TTITLE1=County Fair
TTITLE2=Nowhere Is Now Here
TTITLE3=18 Feet Under
TTITLE4=Tangled On The Kitchen Floor
EXTD=
EXTT0=
EXTT1=
EXTT2=
EXTT3=
EXTT4=
PLAYORDER=
